<svg width="24" height="24" viewBox="0 0 24 24" fill="none" xmlns="http://www.w3.org/2000/svg">
<path d="M10.3186 14.901C10.0066 14.901 9.69455 14.7825 9.45605 14.544C7.22705 12.315 7.22705 8.68652 9.45605 6.45602L13.9561 1.95602C15.0361 0.876018 16.4731 0.280518 18.0001 0.280518C19.5271 0.280518 20.9641 0.876018 22.0441 1.95602C24.2731 4.18652 24.2731 7.81352 22.0441 10.044L19.9876 12.1005C19.5121 12.576 18.7396 12.576 18.2641 12.1005C17.7886 11.625 17.7886 10.8525 18.2641 10.377L20.3206 8.32052C21.6001 7.04102 21.6001 4.95902 20.3206 3.67952C19.7011 3.06002 18.8761 2.71802 18.0001 2.71802C17.1241 2.71802 16.2991 3.06002 15.6796 3.67952L11.1796 8.17952C9.90005 9.45902 9.90005 11.541 11.1796 12.8205C11.6551 13.296 11.6551 14.0685 11.1796 14.544C10.9411 14.7825 10.6291 14.901 10.3171 14.901H10.3186Z" fill="#131313"/>
<path d="M6.00005 23.7195C4.47305 23.7195 3.03605 23.124 1.95605 22.044C-0.272948 19.815 -0.272948 16.1865 1.95605 13.956L4.01255 11.8995C4.48805 11.424 5.26055 11.424 5.73605 11.8995C6.21155 12.375 6.21155 13.1475 5.73605 13.623L3.67955 15.6795C2.40005 16.959 2.40005 19.041 3.67955 20.3205C4.29905 20.94 5.12255 21.282 6.00005 21.282C6.87755 21.282 7.70105 20.94 8.32055 20.3205L12.8206 15.8205C14.1001 14.541 14.1001 12.459 12.8206 11.1795C12.3451 10.704 12.3451 9.93149 12.8206 9.45599C13.2961 8.98049 14.0686 8.98049 14.5441 9.45599C16.7731 11.685 16.7731 15.3135 14.5441 17.544L10.0441 22.044C8.96405 23.124 7.52705 23.7195 6.00005 23.7195Z" fill="#131313"/>
</svg>
