<svg width="189" height="71" viewBox="0 0 189 71" fill="none" xmlns="http://www.w3.org/2000/svg">
<path d="M22.3555 20.5234C22.3555 22.3854 21.8542 24.0065 20.8516 25.3867C19.862 26.7669 18.4688 27.7956 16.6719 28.4727C14.875 29.1497 12.7135 29.4883 10.1875 29.4883C7.25781 29.4883 4.57552 28.9935 2.14062 28.0039V20.3281C3.3125 21.1875 4.60807 21.8841 6.02734 22.418C7.44661 22.9388 8.76823 23.1992 9.99219 23.1992C10.9167 23.1992 11.6328 23.0365 12.1406 22.7109C12.6484 22.3724 12.9023 21.8841 12.9023 21.2461C12.9023 20.7904 12.7721 20.3932 12.5117 20.0547C12.2643 19.7031 11.8802 19.3776 11.3594 19.0781C10.8516 18.7786 9.90104 18.3685 8.50781 17.8477C4.0026 16.1159 1.75 13.3164 1.75 9.44922C1.75 6.74089 2.77865 4.57943 4.83594 2.96484C6.89323 1.33724 9.65365 0.523438 13.1172 0.523438C14.0938 0.523438 14.9922 0.5625 15.8125 0.640625C16.6328 0.71875 17.375 0.816406 18.0391 0.933594C18.7161 1.05078 19.6602 1.27214 20.8711 1.59766V8.72656C18.5143 7.4375 16.1966 6.79297 13.918 6.79297C12.9805 6.79297 12.2253 6.96875 11.6523 7.32031C11.0794 7.67188 10.793 8.15365 10.793 8.76562C10.793 9.35156 11.0208 9.83984 11.4766 10.2305C11.9453 10.6081 12.9154 11.1029 14.3867 11.7148C17.2904 12.8867 19.3411 14.1693 20.5391 15.5625C21.75 16.9557 22.3555 18.6094 22.3555 20.5234ZM47.9516 29L46.7211 23.8438H38.3617L37.0336 29H27.9125L37.5609 0.992188H48.0297L57.1117 29H47.9516ZM42.6391 7.08594H42.4438C42.4177 7.39844 42.3266 7.91276 42.1703 8.62891C42.0141 9.34505 41.2263 12.418 39.807 17.8477H45.1586L43.2055 10.2305C42.932 9.11068 42.7432 8.0625 42.6391 7.08594ZM90.6375 29V13.6484C90.6375 12.2031 90.6831 10.6146 90.7742 8.88281L90.8328 7.59375H90.5984C90.1818 9.79427 89.8628 11.3177 89.6414 12.1641L85.5203 29H77.5906L73.2742 12.3594C73.157 11.9427 72.851 10.3542 72.3562 7.59375H72.1219C72.3042 11.9688 72.3953 14.7031 72.3953 15.7969V29H64.993V0.992188H77.6297L81.4773 16.207C81.5685 16.5195 81.6857 17.1576 81.8289 18.1211C81.9852 19.0716 82.0828 19.8073 82.1219 20.3281H82.2391C82.3823 19.1432 82.6102 17.7435 82.9227 16.1289L86.5164 0.992188H98.9578V29H90.6375ZM133.499 16.207C133.499 20.6992 132.471 24.0391 130.413 26.2266C128.369 28.401 125.211 29.4883 120.941 29.4883C116.956 29.4883 113.929 28.401 111.859 26.2266C109.801 24.0391 108.773 20.7513 108.773 16.3633V0.992188H117.249V16.6758C117.249 18.4727 117.581 19.8594 118.245 20.8359C118.922 21.7995 119.886 22.2812 121.136 22.2812C122.399 22.2812 123.356 21.8255 124.007 20.9141C124.671 20.0026 125.003 18.6549 125.003 16.8711V0.992188H133.499V16.207ZM143.295 29V0.992188H160.736V7.59375H151.732V11.6758H160.189V18.2773H151.732V22.3984H161.38V29H143.295ZM169.965 29V0.992188H178.402V22.3984H188.051V29H169.965ZM20.6641 61.5234C20.6641 63.3854 20.1628 65.0065 19.1602 66.3867C18.1706 67.7669 16.7773 68.7956 14.9805 69.4727C13.1836 70.1497 11.0221 70.4883 8.49609 70.4883C5.56641 70.4883 2.88411 69.9935 0.449219 69.0039V61.3281C1.62109 62.1875 2.91667 62.8841 4.33594 63.418C5.75521 63.9388 7.07682 64.1992 8.30078 64.1992C9.22526 64.1992 9.94141 64.0365 10.4492 63.7109C10.957 63.3724 11.2109 62.8841 11.2109 62.2461C11.2109 61.7904 11.0807 61.3932 10.8203 61.0547C10.5729 60.7031 10.1888 60.3776 9.66797 60.0781C9.16016 59.7786 8.20964 59.3685 6.81641 58.8477C2.3112 57.1159 0.0585938 54.3164 0.0585938 50.4492C0.0585938 47.7409 1.08724 45.5794 3.14453 43.9648C5.20182 42.3372 7.96224 41.5234 11.4258 41.5234C12.4023 41.5234 13.3008 41.5625 14.1211 41.6406C14.9414 41.7188 15.6836 41.8164 16.3477 41.9336C17.0247 42.0508 17.9688 42.2721 19.1797 42.5977V49.7266C16.8229 48.4375 14.5052 47.793 12.2266 47.793C11.2891 47.793 10.5339 47.9688 9.96094 48.3203C9.38802 48.6719 9.10156 49.1536 9.10156 49.7656C9.10156 50.3516 9.32943 50.8398 9.78516 51.2305C10.2539 51.6081 11.224 52.1029 12.6953 52.7148C15.599 53.8867 17.6497 55.1693 18.8477 56.5625C20.0586 57.9557 20.6641 59.6094 20.6641 61.5234ZM42.2617 48.5938V70H33.7852V48.5938H25.9531V41.9922H50.1914V48.5938H42.2617ZM75.1289 70L73.8984 64.8438H65.5391L64.2109 70H55.0898L64.7383 41.9922H75.207L84.2891 70H75.1289ZM69.8164 48.0859H69.6211C69.5951 48.3984 69.5039 48.9128 69.3477 49.6289C69.1914 50.3451 68.4036 53.418 66.9844 58.8477H72.3359L70.3828 51.2305C70.1094 50.1107 69.9206 49.0625 69.8164 48.0859ZM100.008 48.5938V53.6328H108.328V60.2344H100.008V70H91.5703V41.9922H109.129V48.5938H100.008ZM117.211 70V41.9922H125.648V63.3984H135.297V70H117.211ZM142.852 70V41.9922H151.289V70H142.852ZM180.367 70L170.484 56.4844C169.703 55.4167 169.065 54.4531 168.57 53.5938H168.492C168.57 54.974 168.609 56.5234 168.609 58.2422V70H160.797V41.9922H168.766L178.238 54.8438C178.355 55.013 178.499 55.2148 178.668 55.4492C178.837 55.6836 179.007 55.9245 179.176 56.1719C179.345 56.4193 179.501 56.6602 179.645 56.8945C179.801 57.1289 179.918 57.3372 179.996 57.5195H180.074C179.996 56.9466 179.957 55.957 179.957 54.5508V41.9922H187.77V70H180.367Z" fill="#ffffff"/>
</svg>
